<svg version="1.1" xmlns="http://www.w3.org/2000/svg" style="display: block;" viewBox="0 0 1360 1344" width="340" height="336" preserveAspectRatio="none">
<defs>
	<linearGradient id="Gradient1" gradientUnits="userSpaceOnUse" x1="401.463" y1="525.145" x2="405.226" y2="524.62">
		<stop class="stop0" offset="0" stop-opacity="0.917647" stop-color="rgb(0,0,0)"/>
		<stop class="stop1" offset="1" stop-opacity="0.960784" stop-color="rgb(0,0,0)"/>
	</linearGradient>
	<linearGradient id="Gradient2" gradientUnits="userSpaceOnUse" x1="349.322" y1="650.869" x2="352.756" y2="651.137">
		<stop class="stop0" offset="0" stop-opacity="0.913725" stop-color="rgb(0,0,0)"/>
		<stop class="stop1" offset="1" stop-opacity="0.964706" stop-color="rgb(0,0,0)"/>
	</linearGradient>
	<linearGradient id="Gradient3" gradientUnits="userSpaceOnUse" x1="664.276" y1="213.642" x2="669.088" y2="211.172">
		<stop class="stop0" offset="0" stop-opacity="0.909804" stop-color="rgb(0,0,0)"/>
		<stop class="stop1" offset="1" stop-opacity="0.964706" stop-color="rgb(0,0,0)"/>
	</linearGradient>
	<linearGradient id="Gradient4" gradientUnits="userSpaceOnUse" x1="241.987" y1="908.994" x2="244.992" y2="909.006">
		<stop class="stop0" offset="0" stop-opacity="0.921569" stop-color="rgb(0,0,0)"/>
		<stop class="stop1" offset="1" stop-opacity="0.952941" stop-color="rgb(0,0,0)"/>
	</linearGradient>
	<linearGradient id="Gradient5" gradientUnits="userSpaceOnUse" x1="269.855" y1="840.939" x2="272.961" y2="841.054">
		<stop class="stop0" offset="0" stop-opacity="0.921569" stop-color="rgb(0,0,0)"/>
		<stop class="stop1" offset="1" stop-opacity="0.964706" stop-color="rgb(0,0,0)"/>
	</linearGradient>
	<linearGradient id="Gradient6" gradientUnits="userSpaceOnUse" x1="361.759" y1="620.897" x2="364.904" y2="621.158">
		<stop class="stop0" offset="0" stop-opacity="0.92549" stop-color="rgb(0,0,0)"/>
		<stop class="stop1" offset="1" stop-opacity="0.956863" stop-color="rgb(0,0,0)"/>
	</linearGradient>
</defs>
<path transform="translate(0,0)" fill="rgb(0,0,0)" d="M 686.294 80.5458 C 693.857 77.3278 711.695 74.638 720.168 73.0645 C 801.301 57.999 881.886 76.4535 963.226 75.9304 C 973.404 75.8649 985.948 75.7192 995.904 76.7664 C 999.158 77.5303 1000.98 78.0001 1004.37 78.3032 L 1004.14 78.8683 L 999.153 79.6421 C 1010.06 79.6655 1045.06 78.4686 1052.99 81.7126 C 1054.44 84.2305 1052.04 149.257 1051.35 157.59 C 1051.4 150.81 1051.42 145.655 1050.83 138.836 C 1050.07 153.176 1050.27 164.77 1047.18 178.82 C 1045.94 184.474 1048.33 199.079 1047.49 205.922 C 1047.48 198.63 1047.79 186.11 1046.59 179.384 C 1045.87 180.626 1043.21 235.261 1045.24 238.618 C 1046.29 237.084 1046.27 237.198 1046.66 235.391 L 1045.19 238.689 L 1046.74 238.526 C 1046.73 241.97 1046.58 245.776 1047.02 249.158 L 1046.3 260.208 C 1036.61 264.352 1042.37 268.008 1038.12 274.56 C 1035.99 272.076 1036.18 271.364 1035.75 267.943 C 1034.57 267.545 1033.55 267.179 1032.39 266.723 L 1031.26 263.322 L 1030.12 262.996 C 1029.27 265.018 1027.72 268.225 1027.47 270.289 C 1025.78 262.267 1023.81 254.305 1021.58 246.416 C 989.066 131.621 870.816 112.442 766.86 136.454 C 724.941 146.136 693.385 172.819 672.648 210.195 C 670.286 206.577 671.322 206.882 668.205 206.188 C 665.063 209.886 665.467 213.56 665.478 218.418 L 666.052 219.508 L 666.677 219.498 L 667.784 221.808 C 658.464 245.323 653.644 270.631 662.221 294.995 C 663.936 299.865 666.948 305.673 668.32 309.91 C 665.188 312.175 665.985 310.916 665.257 314.568 C 669.292 325.42 700.955 356.318 711.017 365.098 L 712.494 364.904 L 713.754 362.109 L 717.481 362.369 C 743.24 385.263 785.054 410.127 815.376 427.788 C 815.523 429.702 815.439 433.002 817.018 434.222 C 821.641 437.795 826.318 441.92 831.719 444.293 C 838.219 447.149 839.327 450.43 845.34 444.949 C 880.21 464.632 911.828 484.646 945.486 506.024 C 1046.5 570.187 1138.42 637.382 1171.6 759.124 C 1182.91 800.646 1188.3 863.699 1176.08 905.523 C 1174.56 899.915 1176.29 893.633 1174.9 889.105 C 1171.65 892.493 1168.97 916.542 1170.03 922.537 L 1170.19 921.945 C 1170.57 923.864 1171.13 926.314 1171.31 928.2 C 1164.18 947.832 1158.1 966.041 1147.94 984.563 C 1072.97 1121.2 903.585 1188.58 752.952 1177.86 C 674.608 1172.29 608.643 1161.85 543.002 1115.22 L 544.391 1113.32 L 547.473 1114.7 C 548.11 1113.73 547.908 1113.34 548.02 1111.94 C 545.724 1108.91 539.653 1106.28 535.843 1107.18 L 535.844 1107.98 L 532.837 1108.4 C 528.326 1105.25 523.92 1101.95 519.627 1098.51 C 465.576 1055.81 421.034 993.262 412.903 923.498 C 415.165 890.608 415.888 846.054 412.928 813.598 C 412.933 810.355 415.191 798.051 415.846 794.487 C 423.243 754.982 437.679 717.128 458.464 682.728 C 461.724 677.294 482.034 645.277 486.337 644.207 C 490.51 647.919 493.893 653.727 495.72 658.987 C 495.521 661.166 491.801 666.891 490.216 668.761 C 483.255 676.977 479.548 690.193 473.795 698.207 C 463.432 696.274 458.763 722.47 452.37 731.199 C 452.557 734.09 453.265 738.65 452.057 741.018 L 449.366 743.007 L 448.481 742.635 C 448.905 746.737 449.868 751.038 448.363 754.665 C 447.013 755.347 445.676 756.052 444.35 756.779 C 443.597 762.08 445.577 765.264 445.489 770.314 C 445.432 773.582 441.17 776.722 441.251 780.181 C 441.789 803.181 439.337 826.94 442.451 849.665 C 442.825 852.396 439.922 859.192 440.54 862.002 C 441.387 865.853 443.341 870.269 444.17 874.154 C 445.989 882.671 447.969 891.666 449.124 900.282 L 450.104 899.715 C 450.812 895.693 451.23 892.782 451.603 888.705 C 469.581 962.425 512.894 1027.79 578.347 1067.44 C 620.548 1092.48 667.912 1107.55 716.824 1111.5 C 729.7 1112.54 749.956 1111.65 760.843 1112.87 C 769.103 1114.29 806.302 1115.74 814.593 1112.69 L 814.305 1112.42 C 818.801 1107.6 818.536 1112.08 820.363 1105.94 C 822.489 1104.98 831.752 1102.84 834.493 1102.13 C 916.171 1080.96 972.362 1019.15 991.916 937.357 C 993.474 941.722 993.927 946.378 995.183 951.247 C 995.072 948.706 995.12 948.068 995.402 945.525 C 1004.25 935.968 996.263 931.476 994.691 919.517 C 995.603 907.746 995.825 895.796 994.253 883.991 C 978.177 761.394 866.509 708.54 775.222 647.318 C 680.867 584.038 553.463 521.76 510.55 410.021 C 506.472 399.401 502.268 385.304 500.978 374.197 C 501.159 368.554 502.394 363.12 502.569 357.481 C 503.212 336.745 502.528 315.507 500.986 294.88 C 502.249 276.179 518.121 229.554 526.01 212.782 C 555.731 149.593 599.086 111.444 663.631 87.336 L 664.792 90.0296 C 672.319 92.6057 683.268 87.0393 686.294 80.5458 z M 418.584 831.869 C 419.382 826.977 419.936 819.296 418.42 814.608 L 417.25 813.583 C 416.253 819.466 414.694 826.642 418.584 831.869 z"/>
<path transform="translate(0,0)" fill="rgb(0,0,0)" fill-opacity="0.847059" d="M 417.25 813.583 L 418.42 814.608 C 419.936 819.296 419.382 826.977 418.584 831.869 C 414.694 826.642 416.253 819.466 417.25 813.583 z"/>
<path transform="translate(0,0)" fill="rgb(0,0,0)" d="M 134.374 62.696 C 145.315 56.9375 154.863 50.7227 166.217 44.9797 C 200.727 27.5177 237.678 15.3686 275.817 8.94344 C 344.595 -1.9957 418.138 10.9702 475.078 52.2481 C 476.293 63.6382 480.966 60.4092 488.653 68.1067 L 491.627 68.4568 L 491.32 70.4129 C 505.949 82.2517 528 105.818 541.457 119.832 C 541.772 126.432 540.376 127.66 540.239 132.656 C 522.333 151.226 505.924 180.439 495.314 203.742 L 495.138 202.935 C 494.591 200.304 494.914 195.53 494.304 194.137 C 490.702 199.844 479.793 226.466 480.515 231.156 L 476.962 228.985 C 476.269 234.49 475.367 239.859 473.431 245.101 C 463.023 273.291 460.697 304.268 459.828 334.09 C 459.764 336.271 460.127 339.908 460.317 341.91 C 462.311 363.002 463.345 380.785 454.095 400.454 C 451.552 405.862 451.563 411.745 445.558 417.052 C 444.534 418.341 442.645 430.998 440.894 433.43 C 437.696 443.851 428.575 447.011 436.137 457.333 L 434.951 459.24 L 431.766 456.394 L 429.79 456.626 C 427.983 460.73 428.531 463.65 425.521 466.913 C 424.002 468.243 424.496 469.458 422.957 471.538 C 418.848 477.093 421.261 486.211 420.833 492.268 L 418.376 491.596 C 417.707 488.544 418.075 489.132 419.118 485.695 L 418.049 485.181 C 418.046 485.185 404.212 518.146 403.977 519.134 C 401.58 523.666 400.271 526.267 401.829 531.429 L 402.564 531.61 L 403.294 533.918 L 402.876 535.202 C 400.712 533.572 400.133 532.905 398.691 530.611 C 395.855 536.985 379.249 575.643 381.135 579.964 L 382.653 579.308 L 383.781 580.895 C 379.301 592.381 374.616 603.787 369.73 615.106 L 369.595 609.536 L 368.118 608.243 C 364.074 611.008 361.107 620.673 360.737 625.543 C 356.847 628.253 352.971 639.467 352.231 644.241 C 349.282 648.207 349.081 650.205 348.609 655.153 C 344.405 657.758 339.336 671.152 340.64 676.179 C 341.427 676.002 342.213 675.824 342.999 675.647 L 343.77 676.916 C 340.725 684.618 330.926 707.049 329.268 713.646 C 331.784 715.36 335.11 715.023 338.336 715.129 C 343.876 719.331 394.144 716.896 397.285 718.999 C 395.899 729.954 387.42 743.998 386.905 756.418 C 386.614 763.464 381.944 761.808 387.938 770.132 C 361.092 770.47 331.299 770.948 304.51 770.272 C 301.218 779.327 293.148 799.687 288.756 808.343 L 286.363 807.614 C 285.101 801.854 289.302 802.748 286.51 800.561 C 283.923 805.302 280.798 811.732 281.113 817.256 C 282.153 818.967 282.969 819.301 283.822 820.787 C 282.494 824.045 278.769 833.794 277.262 836.384 C 276.354 833.08 276.57 831.553 274.299 829.685 C 270.462 832.285 268.359 843.808 269.898 848.013 L 270.39 847.226 L 271.802 849.808 L 266.879 861.421 C 267.232 857.749 268.006 854.635 266.416 851.479 C 262.328 852.825 260.751 861.967 261.32 865.826 C 262.357 867.222 262.811 867.185 263.818 868.782 L 258.698 881.136 C 256.58 880.425 255.641 879.908 253.781 878.654 C 250.783 882.238 247.896 891.011 249.539 895.6 L 250.046 895.206 L 251.966 896.996 L 249.421 902.839 C 249.022 898.74 249.734 898.825 247.274 896.306 C 244.589 897.948 241.2 908.901 240.558 912.25 C 237.704 914.638 227.171 939.62 229.158 943.508 L 231.055 943.521 L 231.868 944.987 C 230.005 948.668 229.326 951.327 228.106 955.027 C 217.351 987.648 230.117 1018.18 265.116 1025.93 C 276.226 1028.39 283.148 1028.04 294.715 1027.84 C 294.246 1032.52 294.596 1038.46 294.74 1043.27 C 266.211 1041.59 231.258 1042.66 202.233 1042.32 C 136.254 1041.55 69.7175 1043.47 3.77345 1042.61 L 3.99025 1028.22 C 22.1113 1028.27 40.4151 1029.83 57.4363 1023.08 C 84.3769 1012.4 109.477 987.752 124.71 963.494 C 129.075 956.543 136.31 939.316 139.832 931.371 L 164.585 874.983 L 166.03 876.106 C 166.363 878.408 166.251 878.284 167.786 880.012 L 168.414 879.725 C 171.564 874.367 180.162 860.718 179.256 854.818 C 177.392 854.545 175.938 854.263 174.11 853.884 C 176.481 847.183 181.799 836.141 184.904 829.122 L 206.607 780.109 L 272.595 630.972 L 273.804 631.849 C 274.545 633.544 274.678 634.307 276.059 635.516 C 278.911 627.107 288.259 617.758 285.7 610.728 L 282.18 609.205 C 284.461 603.452 286.418 599.3 289.206 593.764 C 290.356 595.79 290.616 597.181 291.308 599.41 C 295.847 597.856 302.676 579.3 302.777 574.472 L 301.777 573.834 L 300.454 574.291 L 298.189 573.179 C 301.112 564.88 309.874 546.266 313.709 537.811 C 321.299 521.079 329.108 501.38 337.218 485.295 C 338.292 486.754 338.881 489.522 339.403 491.386 L 340.91 491.15 C 342.521 486.733 342.239 484.766 346.025 481.288 C 347.032 480.364 347.292 479.477 347.396 478.096 C 345.23 474.572 346.385 475.789 342.111 473.694 C 344.421 467.885 346.526 463.384 349.267 457.772 C 351.417 460.822 349.137 460.524 351.953 463.25 C 359.39 446.369 360.947 453.924 362.255 433.455 L 363.521 436.058 L 364.735 436.378 C 367.89 431.932 366.101 427.976 364.416 423.365 C 366.901 418.976 369.134 412.608 371.289 407.905 C 392.651 361.275 411.914 313.025 434.14 266.851 C 431.822 256.637 420.534 230.555 415.497 219.882 C 384.682 154.59 342.058 95.1132 272.138 69.0714 C 232.993 54.492 180.637 54.8175 142.924 72.3166 C 139.531 69.0839 137.331 66.3105 134.374 62.696 z"/>
<path transform="translate(0,0)" fill="rgb(0,0,0)" d="M 537.004 537.423 L 540.472 538.697 L 541.698 542.061 C 543.122 537.358 537.942 527.995 542.31 523.805 C 543.824 525.892 544.419 527.526 546.503 528.009 C 546.503 528.009 548.23 532.078 548.23 532.078 C 549.995 533.094 552.843 534.66 554.301 536.007 C 555.772 537.367 556.44 540.29 557.988 541.581 C 559.768 543.066 560.703 543.351 562.857 543.724 C 564.015 542.521 564.88 541.657 565.938 540.344 C 584.412 557.346 605.109 572.38 625.505 586.962 C 667.382 616.902 711.082 644.206 754.459 671.895 C 776.872 686.201 812.31 707.33 831.45 724.666 C 838.947 731.457 854.276 787.184 859.152 800.485 C 876.243 848.569 895.886 895.706 917.999 941.697 C 924.165 954.416 932.859 972.773 940.011 984.717 C 930.501 999.95 924.573 1008.46 912.524 1021.68 C 877.684 1059.91 819.28 1079.19 768.207 1080.32 C 756.129 1062.26 736.386 1024.18 726.504 1004.71 C 699.925 952.321 675.316 898.959 652.729 844.732 C 644.44 824.95 629.064 789.875 622.98 770.218 C 591.127 771.338 557.116 769.643 525.116 770.303 C 512.213 770.569 495.575 769.496 483.181 770.773 C 484.447 757.386 495.033 727.023 501.856 715.279 C 527.992 714.118 575.301 717.163 598.78 714.142 L 599.452 712.877 C 595.381 696.633 579.928 657.847 573.553 640.362 C 561.234 606.572 549.647 570.77 537.004 537.423 z"/>
<path transform="translate(0,0)" fill="rgb(0,0,0)" d="M 1024.54 1148.47 L 1040.96 1138.92 C 1098.99 1208.77 1177.15 1278.8 1271.71 1287.43 C 1285.12 1288.57 1298.6 1288.31 1311.95 1286.66 C 1315.94 1286.17 1328.24 1284.05 1331.45 1283.99 C 1335.14 1287.12 1347.67 1288.83 1352.72 1289.19 C 1353.62 1289.25 1355.69 1288.53 1356.61 1288.56 C 1352.53 1295.42 1339.29 1301.93 1331.92 1305.71 C 1288.5 1327.53 1240.59 1338.95 1192 1339.07 C 1111.88 1339.42 1029.27 1312.68 961.408 1270.91 C 953.45 1266.02 932.978 1253.82 926.872 1247.76 C 925.187 1244.8 925.104 1240.21 923.934 1239.29 C 919.432 1235.76 910.792 1226.97 905.123 1227.2 L 902.671 1229.86 C 894.352 1223.98 880.847 1211.48 871.878 1204.4 C 883.576 1200.33 901.627 1197.26 914.462 1193.75 C 940.654 1186.6 960.768 1179.03 985.259 1168.29 L 987.511 1172.72 C 993.03 1170.84 1022.87 1154.88 1025.55 1151.37 L 1024.54 1148.47 z"/>
<path transform="translate(0,0)" fill="rgb(0,0,0)" fill-opacity="0.905882" d="M 436.137 457.333 C 428.575 447.011 437.696 443.851 440.894 433.43 C 442.645 430.998 444.534 418.341 445.558 417.052 C 451.563 411.745 451.552 405.862 454.095 400.454 C 463.345 380.785 462.311 363.002 460.317 341.91 C 460.127 339.908 459.764 336.271 459.828 334.09 C 460.697 304.268 463.023 273.291 473.431 245.101 C 475.367 239.859 476.269 234.49 476.962 228.985 L 480.515 231.156 C 479.793 226.466 490.702 199.844 494.304 194.137 C 494.914 195.53 494.591 200.304 495.138 202.935 L 495.314 203.742 C 477.07 246.013 465.391 290.613 463.994 337.066 C 463.666 347.966 469.286 372.64 467.039 380.144 C 461.239 399.523 449.755 422.066 442.122 441.275 C 440.717 444.812 436.432 454.142 436.137 457.333 z"/>
<path transform="translate(0,0)" fill="rgb(0,0,0)" fill-opacity="0.878431" d="M 451.603 888.705 C 451.23 892.782 450.812 895.693 450.104 899.715 L 449.124 900.282 C 447.969 891.666 445.989 882.671 444.17 874.154 C 443.341 870.269 441.387 865.853 440.54 862.002 C 439.922 859.192 442.825 852.396 442.451 849.665 C 439.337 826.94 441.789 803.181 441.251 780.181 C 441.17 776.722 445.432 773.582 445.489 770.314 C 445.577 765.264 443.597 762.08 444.35 756.779 C 445.676 756.052 447.013 755.347 448.363 754.665 C 449.868 751.038 448.905 746.737 448.481 742.635 L 449.366 743.007 L 452.057 741.018 C 453.265 738.65 452.557 734.09 452.37 731.199 C 458.763 722.47 463.432 696.274 473.795 698.207 C 447.482 758.356 437.687 813.465 449.786 877.314 C 450.251 879.769 451.69 886.737 451.603 888.705 z"/>
<path transform="translate(0,0)" fill="rgb(0,0,0)" fill-opacity="0.909804" d="M 995.904 76.7664 C 1013.6 76.5861 1043.22 75.7901 1059.91 77.4913 C 1061.03 99.2484 1055.67 122.855 1055.53 145.015 C 1055.47 154.165 1053.22 165.379 1052.5 174.774 L 1048.74 224.54 C 1048.37 229.987 1048.03 244.953 1047.02 249.158 C 1046.58 245.776 1046.73 241.97 1046.74 238.526 L 1045.19 238.689 L 1046.66 235.391 C 1046.27 237.198 1046.29 237.084 1045.24 238.618 C 1043.21 235.261 1045.87 180.626 1046.59 179.384 C 1047.79 186.11 1047.48 198.63 1047.49 205.922 C 1048.33 199.079 1045.94 184.474 1047.18 178.82 C 1050.27 164.77 1050.07 153.176 1050.83 138.836 C 1051.42 145.655 1051.4 150.81 1051.35 157.59 C 1052.04 149.257 1054.44 84.2305 1052.99 81.7126 C 1045.06 78.4686 1010.06 79.6655 999.153 79.6421 L 1004.14 78.8683 L 1004.37 78.3032 C 1000.98 78.0001 999.158 77.5303 995.904 76.7664 z"/>
<path transform="translate(0,0)" fill="rgb(0,0,0)" fill-opacity="0.952941" d="M 475.078 52.2481 C 499.044 67.1682 531.923 97.5738 548.268 121.324 C 549.834 123.6 542.116 130.875 540.239 132.656 C 540.376 127.66 541.772 126.432 541.457 119.832 C 528 105.818 505.949 82.2517 491.32 70.4129 L 491.627 68.4568 L 488.653 68.1067 C 480.966 60.4092 476.293 63.6382 475.078 52.2481 z"/>
<path transform="translate(0,0)" fill="rgb(0,0,0)" fill-opacity="0.913725" d="M 338.336 715.129 C 360.71 714.804 383.444 715.811 404.84 715.566 L 405.519 716.612 C 398.847 735.393 393.648 750.948 387.938 770.132 C 381.944 761.808 386.614 763.464 386.905 756.418 C 387.42 743.998 395.899 729.954 397.285 718.999 C 394.144 716.896 343.876 719.331 338.336 715.129 z"/>
<path transform="translate(0,0)" fill="rgb(0,0,0)" fill-opacity="0.956863" d="M 412.903 923.498 C 406.933 894.016 407.793 843.983 412.928 813.598 C 415.888 846.054 415.165 890.608 412.903 923.498 z"/>
<path transform="translate(0,0)" fill="rgb(0,0,0)" fill-opacity="0.937255" d="M 717.481 362.369 L 713.754 362.109 L 712.494 364.904 L 711.017 365.098 C 700.955 356.318 669.292 325.42 665.257 314.568 C 665.985 310.916 665.188 312.175 668.32 309.91 C 676.84 323.73 704.314 353.044 717.481 362.369 z"/>
<path transform="translate(0,0)" fill="rgb(0,0,0)" fill-opacity="0.92549" d="M 526.641 506.762 C 543.861 519.605 550.356 525.066 565.938 540.344 C 564.88 541.657 564.015 542.521 562.857 543.724 C 560.703 543.351 559.768 543.066 557.988 541.581 C 556.44 540.29 555.772 537.367 554.301 536.007 C 552.843 534.66 549.995 533.094 548.23 532.078 C 548.23 532.078 546.503 528.009 546.503 528.009 C 544.419 527.526 543.824 525.892 542.31 523.805 C 537.942 527.995 543.122 537.358 541.698 542.061 L 540.472 538.697 L 537.004 537.423 C 534.309 527.719 530.031 516.407 526.641 506.762 z"/>
<path transform="translate(0,0)" fill="rgb(0,0,0)" fill-opacity="0.960784" d="M 500.986 294.88 C 502.528 315.507 503.212 336.745 502.569 357.481 C 502.394 363.12 501.159 368.554 500.978 374.197 C 495.377 354.384 497.013 314.859 500.986 294.88 z"/>
<path transform="translate(0,0)" fill="rgb(0,0,0)" fill-opacity="0.937255" d="M 383.781 580.895 L 382.653 579.308 L 381.135 579.964 C 379.249 575.643 395.855 536.985 398.691 530.611 C 400.133 532.905 400.712 533.572 402.876 535.202 C 397.248 549.605 390.269 566.947 383.781 580.895 z"/>
<path transform="translate(0,0)" fill="rgb(0,0,0)" fill-opacity="0.968627" d="M 1027.47 270.289 C 1027.72 268.225 1029.27 265.018 1030.12 262.996 L 1031.26 263.322 L 1032.39 266.723 C 1033.55 267.179 1034.57 267.545 1035.75 267.943 C 1036.18 271.364 1035.99 272.076 1038.12 274.56 C 1042.37 268.008 1036.61 264.352 1046.3 260.208 C 1045.12 266.76 1045.46 276.664 1043.67 279.66 C 1030.81 285.141 1028.72 282.075 1027.47 270.289 z"/>
<path transform="translate(0,0)" fill="rgb(0,0,0)" fill-opacity="0.94902" d="M 760.843 1112.87 C 763.628 1112.54 767.354 1112.33 770.214 1112.26 C 787.354 1111.81 803.536 1109.01 820.363 1105.94 C 818.536 1112.08 818.801 1107.6 814.305 1112.42 L 814.593 1112.69 C 806.302 1115.74 769.103 1114.29 760.843 1112.87 z"/>
<path transform="translate(0,0)" fill="rgb(0,0,0)" fill-opacity="0.933333" d="M 349.267 457.772 C 354.237 446.357 359.057 434.568 364.416 423.365 C 366.101 427.976 367.89 431.932 364.735 436.378 L 363.521 436.058 L 362.255 433.455 C 360.947 453.924 359.39 446.369 351.953 463.25 C 349.137 460.524 351.417 460.822 349.267 457.772 z"/>
<path transform="translate(0,0)" fill="rgb(0,0,0)" fill-opacity="0.960784" d="M 985.259 1168.29 C 998.835 1162.33 1011.45 1155.41 1024.54 1148.47 L 1025.55 1151.37 C 1022.87 1154.88 993.03 1170.84 987.511 1172.72 L 985.259 1168.29 z"/>
<path transform="translate(0,0)" fill="rgb(0,0,0)" fill-opacity="0.941176" d="M 403.977 519.134 C 404.212 518.146 418.046 485.185 418.049 485.181 L 419.118 485.695 C 418.075 489.132 417.707 488.544 418.376 491.596 L 420.833 492.268 C 416.625 502.876 412.119 513.317 407.811 523.875 C 406.638 522 407.477 522.774 404.73 522.098 L 403.977 519.134 z"/>
<path transform="translate(0,0)" fill="rgb(0,0,0)" fill-opacity="0.960784" d="M 815.376 427.788 C 825.425 433.401 835.414 439.122 845.34 444.949 C 839.327 450.43 838.219 447.149 831.719 444.293 C 826.318 441.92 821.641 437.795 817.018 434.222 C 815.439 433.002 815.523 429.702 815.376 427.788 z"/>
<path transform="translate(0,0)" fill="rgb(0,0,0)" fill-opacity="0.92549" d="M 240.558 912.25 L 241.716 914.213 L 243.142 914.541 L 244.029 916.061 L 231.868 944.987 L 231.055 943.521 L 229.158 943.508 C 227.171 939.62 237.704 914.638 240.558 912.25 z"/>
<path transform="translate(0,0)" fill="rgb(0,0,0)" fill-opacity="0.956863" d="M 1355.04 1278.3 C 1355.35 1280.5 1356.1 1286.73 1356.61 1288.56 C 1355.69 1288.53 1353.62 1289.25 1352.72 1289.19 C 1347.67 1288.83 1335.14 1287.12 1331.45 1283.99 C 1339.19 1281.95 1347.18 1279.65 1355.04 1278.3 z"/>
<path transform="translate(0,0)" fill="rgb(0,0,0)" fill-opacity="0.933333" d="M 164.585 874.983 L 174.11 853.884 C 175.938 854.263 177.392 854.545 179.256 854.818 C 180.162 860.718 171.564 874.367 168.414 879.725 L 167.786 880.012 C 166.251 878.284 166.363 878.408 166.03 876.106 L 164.585 874.983 z"/>
<path transform="translate(0,0)" fill="rgb(0,0,0)" fill-opacity="0.945098" d="M 298.189 573.179 L 300.454 574.291 L 301.777 573.834 L 302.777 574.472 C 302.676 579.3 295.847 597.856 291.308 599.41 C 290.616 597.181 290.356 595.79 289.206 593.764 C 292.085 586.852 295.08 579.989 298.189 573.179 z"/>
<path transform="translate(0,0)" fill="rgb(0,0,0)" fill-opacity="0.968627" d="M 902.671 1229.86 L 905.123 1227.2 C 910.792 1226.97 919.432 1235.76 923.934 1239.29 C 925.104 1240.21 925.187 1244.8 926.872 1247.76 C 920.899 1244.44 908.283 1234.24 902.671 1229.86 z"/>
<path transform="translate(0,0)" fill="rgb(0,0,0)" fill-opacity="0.917647" d="M 1171.31 928.2 C 1171.13 926.314 1170.57 923.864 1170.19 921.945 L 1170.03 922.537 C 1168.97 916.542 1171.65 892.493 1174.9 889.105 C 1176.29 893.633 1174.56 899.915 1176.08 905.523 C 1176.09 913.314 1172.58 920.403 1171.31 928.2 z"/>
<path transform="translate(0,0)" fill="rgb(0,0,0)" fill-opacity="0.945098" d="M 282.18 609.205 L 285.7 610.728 C 288.259 617.758 278.911 627.107 276.059 635.516 C 274.678 634.307 274.545 633.544 273.804 631.849 L 272.595 630.972 C 275.859 623.959 279.049 616.329 282.18 609.205 z"/>
<path transform="translate(0,0)" fill="rgb(0,0,0)" fill-opacity="0.972549" d="M 991.916 937.357 C 992.586 931.47 993.707 925.381 994.691 919.517 C 996.263 931.476 1004.25 935.968 995.402 945.525 C 995.12 948.068 995.072 948.706 995.183 951.247 C 993.927 946.378 993.474 941.722 991.916 937.357 z"/>
<path transform="translate(0,0)" fill="rgb(0,0,0)" fill-opacity="0.937255" d="M 348.609 655.153 L 349.808 657.515 L 351.584 658.055 C 350.5 661.995 345.775 673.1 343.77 676.916 L 342.999 675.647 C 342.213 675.824 341.427 676.002 340.64 676.179 C 339.336 671.152 344.405 657.758 348.609 655.153 z"/>
<path transform="translate(0,0)" fill="rgb(0,0,0)" fill-opacity="0.933333" d="M 352.231 644.241 C 352.971 639.467 356.847 628.253 360.737 625.543 L 362.494 632.221 C 360.329 637.352 358.116 642.897 355.841 647.939 L 355.064 646.769 L 353.106 646.558 L 352.231 644.241 z"/>
<path transform="translate(0,0)" fill="url(#Gradient6)" d="M 360.737 625.543 C 361.107 620.673 364.074 611.008 368.118 608.243 L 369.595 609.536 L 369.73 615.106 L 362.494 632.221 L 360.737 625.543 z"/>
<path transform="translate(0,0)" fill="rgb(0,0,0)" fill-opacity="0.960784" d="M 663.631 87.336 C 671.487 84.7536 678.301 82.6637 686.294 80.5458 C 683.268 87.0393 672.319 92.6057 664.792 90.0296 L 663.631 87.336 z"/>
<path transform="translate(0,0)" fill="rgb(0,0,0)" fill-opacity="0.94902" d="M 420.833 492.268 C 421.261 486.211 418.848 477.093 422.957 471.538 C 424.496 469.458 424.002 468.243 425.521 466.913 C 425.701 470.725 424.813 472.144 428.412 474.237 C 426.514 479.482 423.43 487.242 420.833 492.268 z"/>
<path transform="translate(0,0)" fill="url(#Gradient5)" d="M 271.802 849.808 L 270.39 847.226 L 269.898 848.013 C 268.359 843.808 270.462 832.285 274.299 829.685 C 276.57 831.553 276.354 833.08 277.262 836.384 C 276.405 838.466 272.195 848.247 271.802 849.808 z"/>
<path transform="translate(0,0)" fill="rgb(0,0,0)" fill-opacity="0.937255" d="M 251.966 896.996 L 250.046 895.206 L 249.539 895.6 C 247.896 891.011 250.783 882.238 253.781 878.654 C 255.641 879.908 256.58 880.425 258.698 881.136 L 251.966 896.996 z"/>
<path transform="translate(0,0)" fill="rgb(0,0,0)" fill-opacity="0.937255" d="M 337.218 485.295 L 342.111 473.694 C 346.385 475.789 345.23 474.572 347.396 478.096 C 347.292 479.477 347.032 480.364 346.025 481.288 C 342.239 484.766 342.521 486.733 340.91 491.15 L 339.403 491.386 C 338.881 489.522 338.292 486.754 337.218 485.295 z"/>
<path transform="translate(0,0)" fill="url(#Gradient4)" d="M 240.558 912.25 C 241.2 908.901 244.589 897.948 247.274 896.306 C 249.734 898.825 249.022 898.74 249.421 902.839 C 247.676 907.267 245.879 911.675 244.029 916.061 L 243.142 914.541 L 241.716 914.213 L 240.558 912.25 z"/>
<path transform="translate(0,0)" fill="rgb(0,0,0)" fill-opacity="0.937255" d="M 425.521 466.913 C 428.531 463.65 427.983 460.73 429.79 456.626 L 431.766 456.394 L 434.951 459.24 C 432.861 464.467 431.031 469.216 428.412 474.237 C 424.813 472.144 425.701 470.725 425.521 466.913 z"/>
<path transform="translate(0,0)" fill="rgb(0,0,0)" fill-opacity="0.937255" d="M 283.822 820.787 C 282.969 819.301 282.153 818.967 281.113 817.256 C 280.798 811.732 283.923 805.302 286.51 800.561 C 289.302 802.748 285.101 801.854 286.363 807.614 L 288.756 808.343 C 287.153 812.973 285.807 816.303 283.822 820.787 z"/>
<path transform="translate(0,0)" fill="rgb(0,0,0)" fill-opacity="0.941176" d="M 263.818 868.782 C 262.811 867.185 262.357 867.222 261.32 865.826 C 260.751 861.967 262.328 852.825 266.416 851.479 C 268.006 854.635 267.232 857.749 266.879 861.421 L 263.818 868.782 z"/>
<path transform="translate(0,0)" fill="url(#Gradient3)" d="M 667.784 221.808 L 666.677 219.498 L 666.052 219.508 L 665.478 218.418 C 665.467 213.56 665.063 209.886 668.205 206.188 C 671.322 206.882 670.286 206.577 672.648 210.195 C 671.573 212.624 668.277 219.658 667.784 221.808 z"/>
<path transform="translate(0,0)" fill="rgb(0,0,0)" fill-opacity="0.960784" d="M 532.837 1108.4 L 535.844 1107.98 L 535.843 1107.18 C 539.653 1106.28 545.724 1108.91 548.02 1111.94 C 547.908 1113.34 548.11 1113.73 547.473 1114.7 L 544.391 1113.32 L 543.002 1115.22 C 539.603 1113.26 536.082 1110.66 532.837 1108.4 z"/>
<path transform="translate(0,0)" fill="url(#Gradient2)" d="M 348.609 655.153 C 349.081 650.205 349.282 648.207 352.231 644.241 L 353.106 646.558 L 355.064 646.769 L 355.841 647.939 C 354.535 651.098 353.022 655.035 351.584 658.055 L 349.808 657.515 L 348.609 655.153 z"/>
<path transform="translate(0,0)" fill="url(#Gradient1)" d="M 403.294 533.918 L 402.564 531.61 L 401.829 531.429 C 400.271 526.267 401.58 523.666 403.977 519.134 L 404.73 522.098 C 407.477 522.774 406.638 522 407.811 523.875 L 403.294 533.918 z"/>
</svg>